# Blender v2.79 (sub 0) OBJ File: ''
# www.blender.org
mtllib texcube.mtl
o Cube
v 1.011755 -1.000380 -1.026146
v 1.011755 -1.000380 0.973854
v -0.988245 -1.000380 0.973854
v -0.988244 -1.000380 -1.026146
v 1.011756 0.999620 -1.026145
v 1.011755 0.999620 0.973855
v -0.988245 0.999620 0.973854
v -0.988245 0.999620 -1.026146
vt 0.000000 0.000000
vt 0.000000 0.000000
vt 0.000000 0.000000
vt 0.000000 0.000000
vt 0.000000 0.000000
vt 0.000000 0.000000
vt 1.000000 0.000000
vt 0.000000 1.000000
vt 0.000000 0.000000
vt 0.000000 0.000000
vt 1.000000 1.000000
vn 0.0000 -1.0000 0.0000
vn 0.0000 1.0000 0.0000
vn 1.0000 -0.0000 0.0000
vn -0.0000 -0.0000 1.0000
vn -1.0000 -0.0000 -0.0000
vn 0.0000 0.0000 -1.0000
usemtl Material
s off
f 2/1/1 4/2/1 1/3/1
f 8/4/2 6/5/2 5/6/2
f 5/7/3 2/8/3 1/3/3
f 6/5/4 3/9/4 2/1/4
f 3/9/5 8/4/5 4/2/5
f 1/3/6 8/4/6 5/6/6
f 2/1/1 3/9/1 4/2/1
f 8/4/2 7/10/2 6/5/2
f 5/7/3 6/11/3 2/8/3
f 6/5/4 7/10/4 3/9/4
f 3/9/5 7/10/5 8/4/5
f 1/3/6 4/2/6 8/4/6
